<?xml version="1.0" encoding="UTF-8"?>
<!DOCTYPE svg PUBLIC "-//W3C//DTD SVG 1.1//EN" "http://www.w3.org/Graphics/SVG/1.1/DTD/svg11.dtd">
<!-- Creator: CorelDRAW 2018 -->
<svg xmlns="http://www.w3.org/2000/svg" xml:space="preserve" width="2.7455in" height="0.859906in" version="1.1" style="shape-rendering:geometricPrecision; text-rendering:geometricPrecision; image-rendering:optimizeQuality; fill-rule:evenodd; clip-rule:evenodd"
viewBox="0 0 724.25 226.84"
 xmlns:xlink="http://www.w3.org/1999/xlink">
 <defs>
  <style type="text/css">
   <![CDATA[
    .fil0 {fill:#B07BB3}
    .fil1 {fill:#8ABE2E}
    .fil2 {fill:#B07BB3;fill-rule:nonzero}
    .fil3 {fill:#8ABE2E;fill-rule:nonzero}
   ]]>
  </style>
 </defs>
 <g id="Layer_x0020_1">
  <metadata id="CorelCorpID_0Corel-Layer"/>
  <rect class="fil0" x="174.42" y="174.15" width="71.34" height="26.61"/>
  <rect class="fil0" x="323.1" y="174.15" width="122.48" height="26.61"/>
  <rect class="fil1" x="0.47" y="148.07" width="173.94" height="78.77"/>
  <rect class="fil1" x="245.76" y="148.07" width="77.34" height="78.77"/>
  <rect class="fil1" x="445.58" y="148.07" width="278.67" height="78.77"/>
  <path class="fil2" d="M476.29 122.24l-31.08 0 0 -120.85 31.08 0 0 120.85zm85.46 0l-31.08 0 0 -96.68 -44.89 0 0 -24.17 120.85 0 0 24.17 -44.89 0 0 96.68zm54.9 0l0 -24.17 66.99 0c2.53,0 4.49,-0.55 5.87,-1.64 1.38,-1.09 2.19,-2.13 2.42,-3.11 0.23,-0.98 0.34,-2.16 0.34,-3.54 0,-4.6 -3.11,-7.88 -9.32,-9.84l-47.31 -14.16c-7.48,-2.19 -12.75,-6.1 -15.8,-11.74 -3.05,-5.64 -4.57,-13.01 -4.57,-22.1 0,-20.37 9.32,-30.56 27.97,-30.56l74.58 0 0 24.17 -62.5 0c-5.64,0 -8.46,2.65 -8.46,7.94 0,4.83 3.22,8.23 9.67,10.19l42.47 12.43c9.09,2.65 15.54,6.5 19.34,11.57 3.8,5.06 5.7,12.55 5.7,22.44 0,21.41 -9.21,32.11 -27.62,32.11l-79.76 0z"/>
  <path class="fil3" d="M123.79 1.38l0 102.9c0,5.18 -1.7,9.7 -5.09,13.55 -3.4,3.86 -9.06,5.78 -17.01,5.78 -10.47,0 -18.13,-3.68 -22.96,-11.05l-47.13 -70.96c-1.27,-1.96 -2.36,-2.93 -3.28,-2.93 -1.38,0 -2.07,1.15 -2.07,3.45l0 80.11 -26.24 0 0 -103.24c0,-6.33 2.1,-11.08 6.3,-14.24 4.2,-3.17 9.7,-4.75 16.49,-4.75 10.24,0 17.67,3.45 22.27,10.36l47.48 71.65c0.11,0.11 0.32,0.43 0.6,0.95 0.29,0.52 0.52,0.86 0.69,1.04 0.17,0.17 0.43,0.37 0.78,0.6 0.34,0.23 0.69,0.35 1.04,0.35 1.27,0 1.9,-0.98 1.9,-2.93l0 -80.63 26.24 0zm104.28 120.85l-55.25 0c-14.16,0 -23.51,-3.28 -28.06,-9.84 -4.55,-6.56 -6.82,-18.65 -6.82,-36.26 0,-9.9 0.69,-17.78 2.07,-23.65 1.38,-5.87 3.97,-10.56 7.77,-14.07 3.8,-3.51 8.49,-5.84 14.07,-6.99 5.58,-1.15 13.15,-1.73 22.7,-1.73 8.29,0 15.02,0.43 20.2,1.3 5.18,0.86 9.93,2.56 14.24,5.09 4.32,2.53 7.42,6.27 9.32,11.22 1.9,4.95 2.85,11.34 2.85,19.16 0,12.66 -4.78,18.99 -14.33,18.99l-51.62 0c0,5.99 1.3,10.39 3.88,13.21 2.59,2.82 7.4,4.23 14.42,4.23l44.54 0 0 19.34zm-62.84 -55.42l33.49 0c3.34,0 5.01,-1.84 5.01,-5.53 0,-4.26 -1.93,-7.37 -5.78,-9.32 -3.86,-1.96 -8.32,-2.93 -13.38,-2.93 -6.68,0 -11.57,1.32 -14.68,3.97 -3.11,2.65 -4.66,7.25 -4.66,13.81zm171.09 55.42l-31.42 0 -20.03 -29.87 -20.03 29.87 -31.42 0 35.74 -46.96 -33.15 -44.54 30.73 0 18.13 27.45 18.13 -27.45 30.73 0 -33.15 44.54 35.74 46.96zm67.33 0l-18.82 0c-22.67,0 -34.01,-10.13 -34.01,-30.39l0 -41.26 -12.78 0 0 -19.85 12.78 0 0 -29.35 26.93 0 0 29.35 25.9 0 0 19.85 -25.9 0 0 31.42c0,7.02 1.67,12.17 5.01,15.45 3.34,3.28 8.63,4.92 15.88,4.92l5.01 0 0 19.85z"/>
 </g>
</svg>
